<svg xmlns="http://www.w3.org/2000/svg" viewBox="0 0 320 150"><defs><style>.cls-2,.cls-3{fill:none;stroke-width:2px;stroke:#000}.cls-2{stroke-miterlimit:10}.cls-3{stroke-linejoin:round}</style></defs><path fill="#f7f7f7" d="M0 0h320v150H0z" id="Layer_2" data-name="Layer 2"/><g id="Layer_1" data-name="Layer 1"><path class="cls-2" transform="rotate(-90 113.565 81.465)" d="M110.57 40.88h6v81.16h-6z"/><path class="cls-3" d="M205.26 37.29H246v67.8a20.38 20.38 0 01-20.38 20.38 20.38 20.38 0 01-20.38-20.38v-67.8h.02z" transform="rotate(-90 225.635 81.375)"/><path class="cls-3" d="M181.55 61L161 66.52v29.71l20.55 5.52"/><rect class="cls-2" x="137.2" y="77.95" width="40.75" height="6.85" rx="3.43" transform="rotate(-90 157.575 81.375)"/><path class="cls-3" d="M181.55 81.46h88.18"/><path d="M30.84 15a16 16 0 1016 16 16 16 0 00-16-16zm1 17v11h-2V32h-11v-2h11V19h2v11h11v2z" fill="#5ea9ff"/><path stroke="#5ea9ff" stroke-linecap="round" stroke-linejoin="round" fill="none" stroke-width="2" d="M55.34 81.39l9.04 3.07h8.61v-6h-8.61l-9.04 2.93z"/></g></svg>