<svg xmlns="http://www.w3.org/2000/svg" width="160" height="42" viewBox="0 0 160 42"><defs><style>.b{fill:#0092df}</style></defs><path fill="none" d="M0 0h160v42H0z"/><path class="b" d="M0 4h36.149L0 37.525z"/><path d="M18.07 4H0v16.759z" fill="#1a1818"/><path class="b" d="M125.785 11.226h8.506l-4.694 19.139h-8.508zM95.599 30.364h7.727l1.4-5.786 4.272 5.786h9.449l-6.809-9.719 10.589-9.42h-8.942l-6.77 5.862 1.445-5.862h-8.061zm-13.156 0l4.7-19.139h8.506l-4.7 19.139zm51.204 0h5.889l2.735-10.919 3.445 10.919h9.519l4.764-19.139h-6.282l-2.677 10.549-3.689-10.549h-8.965zM44.3 25.906a5.6 5.6 0 004.7-4.621s.547-3.31-.7-4.523a3.037 3.037 0 00-2.068-.739h-3.265l-2.348 9.883zm-12.916 4.457l4.763-19.139h12.781s8.8.705 7.881 9.654c-.025.26-.449 7.97-9.832 9.484zm38.457-8.024l-.872-4.9-2.677 4.9zm-5.916 4.385l-2.3 3.642h-5.603l10.619-19.139h9.712l3.377 19.139h-8.473l-.646-3.642z"/></svg>