<svg xmlns="http://www.w3.org/2000/svg" width="160.16" height="42" viewBox="0 0 160.16 42"><defs><style>.c{fill:#e50019}</style></defs><path fill="none" d="M0 0h160v42H0z"/><path d="M34.41 12.004h4.548v6.969h.049l5.136-6.969h5.478l-6.311 7.947 6.8 9.121h-5.8l-5.306-7.752h-.049v7.752h-4.548zm17.777 0h12.029v3.226h-7.484v3.524h7.069v3.228h-7.069v3.863h7.752v3.228h-12.3zm15.383 0h5.8l5.772 11.592h.047l-.073-11.592h4.158v17.068h-5.649l-5.968-11.664h-.049l.147 11.664h-4.182zm22.131 3.375h-4.207v-3.375h12.962v3.375h-4.207v13.694h-4.548zm16.972.148h-.047l-2.2 6.675h4.273zm-2.787-3.522h5.574l6.579 17.068h-4.987l-1.273-3.643h-6.409l-1.344 3.643h-4.621zm15.459 3.374h-4.207v-3.375H128.1v3.375h-4.207v13.694h-4.548zm10.957 9.488a9.993 9.993 0 004.695 1.124c1.444 0 2.814-.294 2.814-1.663 0-3.179-8.072-1.175-8.072-7.384 0-4.109 4.011-5.235 7.435-5.235a14.472 14.472 0 014.4.636l-.294 3.522a9.169 9.169 0 00-3.79-.783c-1.151 0-3.056.1-3.056 1.59 0 2.764 8.07.9 8.07 7.067 0 4.427-3.718 5.625-7.509 5.625a17.949 17.949 0 01-5.087-.733zm29.858-2.275c0 4.671-3.032 6.775-7.482 6.775s-7.484-2.1-7.484-6.775V12.003h4.548v9.831c0 2.25.611 4.158 2.936 4.158s2.934-1.908 2.934-4.158v-9.831h4.548z" fill="#1a1818"/><path class="c" d="M10.601 9h6.196v6.2h-6.196zm0 16.847h6.196v6.202h-6.196z"/><path class="c" d="M2.16 23.627l5.355-3.118 3.116 5.353-5.355 3.117z"/><path class="c" d="M2.173 17.376l3.138-5.346 5.345 3.138-3.138 5.346zm14.612 8.488l3.116-5.356 5.358 3.117-3.116 5.356z"/><path class="c" d="M16.761 15.168l5.346-3.137 3.138 5.346-5.347 3.137z"/></svg>