<svg xmlns="http://www.w3.org/2000/svg" width="160" height="42" viewBox="0 0 160 42"><path fill="none" d="M0 0h160v42H0z"/><path d="M34.746 7.466a14.725 14.725 0 015.559 1.046 14.523 14.523 0 014.51 2.956 13.846 13.846 0 013.029 4.4 13.924 13.924 0 010 10.8 13.9 13.9 0 01-3.029 4.391 13.652 13.652 0 01-4.51 2.917 13.991 13.991 0 01-5.559 1.09H24.18v-27.6zm3.5 21.728a7.7 7.7 0 002.679-1.829 9.019 9.019 0 002.335-6.1 8.876 8.876 0 00-.623-3.383 8.519 8.519 0 00-1.711-2.718 8.251 8.251 0 00-2.679-1.865 9.208 9.208 0 00-3.5-.662h-4.931v17.259h4.931a8.525 8.525 0 003.5-.7M81.991 7.467h5.64v27.598h-5.64zm31.907 16.773a7.3 7.3 0 01-7.6 5.85c-5.877 0-7.762-4.559-7.762-8.825s1.885-8.823 7.762-8.823a7.307 7.307 0 017.6 5.847h5.764C118.537 11.51 113.536 7 106.505 7c-8.009 0-13.82 5.865-13.82 14.265s5.811 14.265 13.82 14.265c7.031 0 12.033-4.513 13.157-11.289zM154.36 7.467H160v27.598h-5.64zm-11.909 0v11.214h-12.4V7.467h-5.635v27.6h5.635V23.614h12.4v11.451h5.635v-27.6zM10.432 7a8.432 8.432 0 108.432 8.432A8.431 8.431 0 0010.432 7m0 11.9a3.464 3.464 0 113.464-3.464 3.464 3.464 0 01-3.464 3.464m46.861 5.65h13.45v4.86h-13.45z"/><path d="M59.571 7.464l-9.5 27.6h5.982l9.128-27.6z"/><path d="M62.618 7.464l9.05 27.6h5.982l-9.419-27.6z"/></svg>