<svg xmlns="http://www.w3.org/2000/svg" width="160" height="42" viewBox="0 0 160 42"><defs><style>.a{fill:none;}.b{fill:#00a1ed;}</style></defs><g transform="translate(-1502 -3373)"><rect class="a" width="160" height="42" transform="translate(1502 3373)"/><g transform="translate(1557 3373)"><path class="b" d="M117.941,776a4.933,4.933,0,0,1-1.319.758,5.33,5.33,0,0,1-2.006.353,3.712,3.712,0,0,1-2.9-1.206,5.307,5.307,0,0,1-1.051-3.568,5,5,0,0,1,.993-3.418,3.934,3.934,0,0,1,3.043-1.12,5.816,5.816,0,0,1,1.994.334,3.551,3.551,0,0,1,1.234.68.729.729,0,0,1,.208.511l0,6.163a.751.751,0,0,1-.2.513m3.512-16.665h-3.006c-.3,0-.307.349-.307.349v6.17l-.429-.227a5.153,5.153,0,0,0-1.452-.511,9.74,9.74,0,0,0-1.793-.147,7.97,7.97,0,0,0-5.7,2.048,7.605,7.605,0,0,0-2.12,5.7,8.127,8.127,0,0,0,1.781,5.33,6.4,6.4,0,0,0,5.173,2.1,5.38,5.38,0,0,0,4.538-1.961l.009,1.9h3.631v-3.56c0-3.968,0-16.834,0-16.834s.015-.361-.319-.361m-18.033,0h-2.934a.347.347,0,0,0-.358.424c0,.465,0,2.7,0,3.159h3.628v-3.207a.326.326,0,0,0-.337-.377M151.507,776.6a.5.5,0,0,1-.269.5,7.04,7.04,0,0,1-3.49.593,2.529,2.529,0,0,1-2.4-1.811,2.649,2.649,0,0,1,1.728-3.084,7.735,7.735,0,0,1,4.083.1c.274.075.344.233.344.559Zm-2.692-11.672c-4.262,0-5.763,2.585-6.237,3.824l-.165.448,1.418.484s.917-2.621,4.529-2.471c3.652.148,3.224,3.137,3.2,3.614a10.71,10.71,0,0,0-6.773.307,4.67,4.67,0,0,0-2.645,4.833c.109,2.35,2.184,4,4.884,4.153,2.423.136,3.514-.394,4.516-1.4l-.027,1.368h3.2V769.76c.068-1.781-1.191-4.833-5.892-4.833m-20.281,6.131c-.169-.005-.184-.17-.181-.252a3.921,3.921,0,0,1,1.075-2.161,3.963,3.963,0,0,1,2.846-1.113,3.713,3.713,0,0,1,2.52.888,4.022,4.022,0,0,1,1.227,2.21c.034.107.094.416-.158.416Zm9.028-3.834a6.6,6.6,0,0,0-5.247-2.251,7.705,7.705,0,0,0-5.529,2.121,7.34,7.34,0,0,0-2.185,5.529,7.171,7.171,0,0,0,2.14,5.437,8.506,8.506,0,0,0,6.036,2.028c4.981,0,6.063-3.432,6.472-4.568l-1.288-.416c-1.147,2.094-3.722,2.22-5.224,2.123a5.38,5.38,0,0,1-2.82-1,3.967,3.967,0,0,1-1.554-2.638l-.07-.462H139.5a8.953,8.953,0,0,0-1.937-5.909m-84.606.693c0-10.8,9.106-19.579,20.3-19.579a20.558,20.558,0,0,1,17.1,9.1,20.023,20.023,0,0,0-18.923-12.971c-11.033,0-20.008,8.607-20.008,19.185a18.508,18.508,0,0,0,2.023,8.326,18.892,18.892,0,0,1-.491-4.062m40.805-8.6H90.108a.32.32,0,0,0-.348.371,18.331,18.331,0,0,1,.169,2.861,20.646,20.646,0,0,1-4.355,13.593l-.278.344s-2.353-16.461-2.4-16.786c0,0-.014-.383-.331-.383H78.882c-.348,0-.325.368-.325.368-.085,1.9-1.147,17.752-12.712,20.312a13.178,13.178,0,0,0,8.048-2.108,13.031,13.031,0,0,0,6.073-8.293s1.413,8.837,1.6,10.868l.012.13-.114.06a22.571,22.571,0,0,1-31.347-11,21.317,21.317,0,0,0,20.833,16.759c11.792,0,18.8-9.869,20.012-16.88,0,0,1.588,10.222,1.629,10.556h4.824c-.072-.44-3.267-20.085-3.319-20.405,0,0-.017-.37-.332-.37m6.368,5.727v15.048l3.556-.005,0-15.043Z" transform="translate(-50.115 -744.469)"/></g></g></svg>