<svg xmlns="http://www.w3.org/2000/svg" width="160" height="42" viewBox="0 0 160 42"><defs><style>.a{fill:none;}.b{fill:#0092df;}.c{fill:#1a1818;}</style></defs><g transform="translate(-1502 -3437)"><rect class="a" width="160" height="42" transform="translate(1502 3437)"/><g transform="translate(1502 3441)"><path class="b" d="M39.685,717.941H75.834L39.685,751.466Z" transform="translate(-39.685 -717.941)"/><path class="c" d="M57.755,717.941H39.685V734.7Z" transform="translate(-39.685 -717.941)"/><path class="b" d="M106.622,721.639h8.506l-4.694,19.139h-8.508Z" transform="translate(19.163 -714.413)"/><path class="b" d="M88.824,740.777h7.727l1.4-5.786,4.272,5.786h9.449l-6.809-9.719,10.589-9.42H106.51L99.74,727.5l1.445-5.862H93.124Z" transform="translate(6.775 -714.413)"/><path class="b" d="M82.062,740.777l4.7-19.139h8.506l-4.7,19.139Z" transform="translate(0.381 -714.413)"/><path class="b" d="M108.381,740.777h5.889l2.735-10.919,3.445,10.919h9.519l4.764-19.139h-6.282l-2.677,10.549-3.689-10.549h-8.965Z" transform="translate(25.266 -714.413)"/><path class="b" d="M68.733,736.32a5.6,5.6,0,0,0,4.7-4.621s.547-3.31-.7-4.523a3.037,3.037,0,0,0-2.068-.739H67.4l-2.348,9.883Zm-12.916,4.457,4.763-19.139H73.361s8.8.705,7.881,9.654c-.025.26-.449,7.97-9.832,9.484Z" transform="translate(-24.433 -714.414)"/><path class="b" d="M82.3,732.751l-.872-4.9-2.677,4.9Zm-5.916,4.385-2.3,3.642H68.481L79.1,721.639h9.712l3.377,19.139H83.716l-.646-3.642Z" transform="translate(-12.459 -714.412)"/></g></g></svg>