<svg xmlns="http://www.w3.org/2000/svg" width="160" height="42" viewBox="0 0 160 42"><defs><style>.b{fill:#464749}</style></defs><path fill="none" d="M0 0h160v42H0z"/><path class="b" d="M130.533 30.903l1.991-6.541a5.348 5.348 0 00.268-1.57 1.859 1.859 0 00-2.1-2.1 5.6 5.6 0 00-4.039 1.825l-4.828 4.46 1.083-3.379a3.919 3.919 0 00.182-1.118q0-1.789-1.968-1.787a6.023 6.023 0 00-4.305 1.866l-5 4.419 1.885-6.285H95.733a9.042 9.042 0 00-5.872 1.786 7.084 7.084 0 00-2.5 4.656 6.9 6.9 0 00-.082 1.061 4.9 4.9 0 001.925 4.026 8.752 8.752 0 006.058 1.827 8.325 8.325 0 005.506-1.807 6.349 6.349 0 002.412-4.832 5.477 5.477 0 00-.282-1.993 3.149 3.149 0 00-.9-1.58h4.752L103.7 34.05h3.4a2.894 2.894 0 002.12-.844l6.639-5.825-1.29 3.252a4.572 4.572 0 00-.249 1.414q0 2 2.269 2 1.518 0 3.653-2.081l5.6-5c-.489 1.848-.858 2.966-1.1 3.935a2.844 2.844 0 00-.065.609 2.6 2.6 0 00.675 1.758 1.946 1.946 0 001.474.775h6.774a3.4 3.4 0 003.789-3.142zm-34.371 0c-.157.014-.339.02-.55.02q-2.673 0-2.671-1.688a2.6 2.6 0 01.117-.746l1.369-4.656h3.82z"/><path class="b" d="M87.75 30.904a3.957 3.957 0 01-1.8 2.553 4.078 4.078 0 01-2.136.589h-6.59a2.1 2.1 0 01-2.387-2.357 4.965 4.965 0 01.233-1.433l3-9.353h6.056l-3.182 10zM75.554 20.691h-5.439l-2.9 2.531-1.435-2.531h-6.956l3.787 6.559-4.161 3.653h-4.885l3.137-10.212h-9.527a8.673 8.673 0 00-5.991 2.159 8.242 8.242 0 00-2.669 6.481 4.509 4.509 0 001.3 3.3 3.991 3.991 0 003.17 1.414 4.9 4.9 0 004.392-2.042q0 2.041 2.7 2.042h9.932l4.37-3.732 2.154 3.732h6.772l-4.337-7.679zM47.638 30.903a6.33 6.33 0 01-.55.02q-2.673 0-2.671-1.688a2.6 2.6 0 01.117-.746l1.369-4.656h3.82zm104.596 0l3.139-10.212h-9.527a8.673 8.673 0 00-5.991 2.159 8.235 8.235 0 00-2.669 6.481 4.476 4.476 0 001.245 3.3 3.986 3.986 0 003.17 1.414 4.989 4.989 0 004.444-2.042q0 2.041 2.7 2.042h6.324a3.818 3.818 0 004.088-3.142zm-5.921 0a6.33 6.33 0 01-.55.02c-1.782 0-2.669-.562-2.669-1.688a2.6 2.6 0 01.116-.746l1.369-4.656h3.82z"/><path d="M34.919 25.248L24.186 7.621A1.312 1.312 0 0023.066 7h-9.87a1.316 1.316 0 00-1.124.621L1.341 25.248a1.23 1.23 0 00.012 1.3l4.374 6.9a1.321 1.321 0 002.232-.025l9.046-15.08a1.324 1.324 0 012.252 0l9.044 15.078a1.321 1.321 0 002.232.027l4.374-6.9a1.23 1.23 0 00.014-1.3" fill="#0092df"/><path d="M17.057 25.798a1.259 1.259 0 012.146 0l1.921 3.223 1.919 3.225a1.2 1.2 0 01-1.075 1.8h-7.675a1.2 1.2 0 01-1.073-1.8l1.919-3.225z" fill="#0060af"/><path class="b" d="M84.427 20.116l1.122-3.687h-4.047a2.72 2.72 0 00-2.6 1.921l-.542 1.766z"/></svg>