<svg xmlns="http://www.w3.org/2000/svg" xmlns:xlink="http://www.w3.org/1999/xlink"><defs><style>.a{fill:none;}.b{fill:#707070;}</style><style>.a{fill:#5EA9FF;}</style><style>.a{fill:#dadada;}</style><style>.a{fill:#000000;}</style></defs><symbol id="arrow-down" viewBox="0 0 16 16"><g transform="translate(0 16) rotate(-90)"><rect class="a" width="16" height="16"/><g transform="translate(3.333 0)"><path class="b" d="M8,16,0,8,8,0,9.407,1.407,2.814,8l6.593,6.593Z"/></g></g></symbol><symbol id="arrow-right-blue" viewBox="0 0 45.642 26.87"><path class="a" d="M26.87,13.435,13.435,0,0,13.435l1.414,1.414L12.435,3.828V45.642h2V3.828L25.456,14.849Z" transform="translate(45.642) rotate(90)"/></symbol><symbol id="arrow-right-disabled" viewBox="0 0 45.642 26.87"><path class="a" d="M26.87,13.435,13.435,0,0,13.435l1.414,1.414L12.435,3.828V45.642h2V3.828L25.456,14.849Z" transform="translate(45.642) rotate(90)"/></symbol><symbol id="arrow-right" viewBox="0 0 45.642 26.87"><path class="a" d="M26.87,13.435,13.435,0,0,13.435l1.414,1.414L12.435,3.828V45.642h2V3.828L25.456,14.849Z" transform="translate(45.642) rotate(90)"/></symbol></svg>