<svg xmlns="http://www.w3.org/2000/svg" xmlns:xlink="http://www.w3.org/1999/xlink"><defs><style>.a{fill:none;}.b{fill:#707070;}</style><style>.a{fill:#5EA9FF;}</style><style>.a{fill:#dadada;}</style><style>.a{fill:#000000;}</style><style>.a{fill:none;}.b{fill:#464749;}.c{fill:#0092df;}.d{fill:#0060af;}</style><style>.a{fill:none;}</style><style>.a{fill:none;}.b{fill:#0092df;}.c{fill:#1a1818;}</style><style>.a{fill:none;}.b{fill:#1a1818;}.c{fill:#e50019;}</style><style>.a{fill:none;}.b{fill:#00a1ed;}</style></defs><symbol id="arrow-down" viewBox="0 0 16 16"><g transform="translate(0 16) rotate(-90)"><rect class="a" width="16" height="16"/><g transform="translate(3.333 0)"><path class="b" d="M8,16,0,8,8,0,9.407,1.407,2.814,8l6.593,6.593Z"/></g></g></symbol><symbol id="arrow-right-blue" viewBox="0 0 45.642 26.87"><path class="a" d="M26.87,13.435,13.435,0,0,13.435l1.414,1.414L12.435,3.828V45.642h2V3.828L25.456,14.849Z" transform="translate(45.642) rotate(90)"/></symbol><symbol id="arrow-right-disabled" viewBox="0 0 45.642 26.87"><path class="a" d="M26.87,13.435,13.435,0,0,13.435l1.414,1.414L12.435,3.828V45.642h2V3.828L25.456,14.849Z" transform="translate(45.642) rotate(90)"/></symbol><symbol id="arrow-right" viewBox="0 0 45.642 26.87"><path class="a" d="M26.87,13.435,13.435,0,0,13.435l1.414,1.414L12.435,3.828V45.642h2V3.828L25.456,14.849Z" transform="translate(45.642) rotate(90)"/></symbol><symbol id="difficulty-1" viewBox="0 0 658 44">
    <g>
        <path fill="#5EA9FF" d="M0,0 h64 v15 h-64 z"/>
        <path fill="#F7F7F7" d="M66 0 h64 v15 h-64 z"/>
        <path fill="#F7F7F7" d="M132 0 h64 v15 h-64 z"/>
        <path fill="#F7F7F7" d="M198 0 h64 v15 h-64 z"/>
        <path fill="#F7F7F7" d="M264 0 h64 v15 h-64 z"/>
        <path fill="#F7F7F7" d="M330 0 h64 v15 h-64 z"/>
        <path fill="#F7F7F7" d="M396 0 h64 v15 h-64 z"/>
        <path fill="#F7F7F7" d="M462 0 h64 v15 h-64 z"/>
        <path fill="#F7F7F7" d="M528 0 h64 v15 h-64 z"/>
        <path fill="#F7F7F7" d="M594 0 h64 v15 h-64 z"/>
    </g>
        <path fill="#E5E5E5" d="M32 25 l11 19 h-22 z"/>
</symbol><symbol id="difficulty-10" viewBox="0 0 658 44">
    <g>
        <path fill="#5EA9FF" d="M0,0 h64 v15 h-64 z"/>
        <path fill="#7CB3FF" d="M66 0 h64 v15 h-64 z"/>
        <path fill="#9ABEFF" d="M132 0 h64 v15 h-64 z"/>
        <path fill="#B7C9FF" d="M198 0 h64 v15 h-64 z"/>
        <path fill="#D5D3FF" d="M264 0 h64 v15 h-64 z"/>
        <path fill="#DDA9CC" d="M330 0 h64 v15 h-64 z"/>
        <path fill="#E67F99" d="M396 0 h64 v15 h-64 z"/>
        <path fill="#EE5466" d="M462 0 h64 v15 h-64 z"/>
        <path fill="#F72A33" d="M528 0 h64 v15 h-64 z"/>
        <path fill="#FF0000" d="M594 0 h64 v15 h-64 z"/>
    </g>
        <path fill="#E5E5E5" d="M626 25 l11 19 h-22 z"/>
</symbol><symbol id="difficulty-2" viewBox="0 0 658 44">
    <g>
        <path fill="#5EA9FF" d="M0,0 h64 v15 h-64 z"/>
        <path fill="#7CB3FF" d="M66 0 h64 v15 h-64 z"/>
        <path fill="#F7F7F7" d="M132 0 h64 v15 h-64 z"/>
        <path fill="#F7F7F7" d="M198 0 h64 v15 h-64 z"/>
        <path fill="#F7F7F7" d="M264 0 h64 v15 h-64 z"/>
        <path fill="#F7F7F7" d="M330 0 h64 v15 h-64 z"/>
        <path fill="#F7F7F7" d="M396 0 h64 v15 h-64 z"/>
        <path fill="#F7F7F7" d="M462 0 h64 v15 h-64 z"/>
        <path fill="#F7F7F7" d="M528 0 h64 v15 h-64 z"/>
        <path fill="#F7F7F7" d="M594 0 h64 v15 h-64 z"/>
    </g>
        <path fill="#E5E5E5" d="M98 25 l11 19 h-22 z"/>
</symbol><symbol id="difficulty-3" viewBox="0 0 658 44">
    <g>
        <path fill="#5EA9FF" d="M0,0 h64 v15 h-64 z"/>
        <path fill="#7CB3FF" d="M66 0 h64 v15 h-64 z"/>
        <path fill="#9ABEFF" d="M132 0 h64 v15 h-64 z"/>
        <path fill="#F7F7F7" d="M198 0 h64 v15 h-64 z"/>
        <path fill="#F7F7F7" d="M264 0 h64 v15 h-64 z"/>
        <path fill="#F7F7F7" d="M330 0 h64 v15 h-64 z"/>
        <path fill="#F7F7F7" d="M396 0 h64 v15 h-64 z"/>
        <path fill="#F7F7F7" d="M462 0 h64 v15 h-64 z"/>
        <path fill="#F7F7F7" d="M528 0 h64 v15 h-64 z"/>
        <path fill="#F7F7F7" d="M594 0 h64 v15 h-64 z"/>
    </g>
        <path fill="#E5E5E5" d="M164 25 l11 19 h-22 z"/>
</symbol><symbol id="difficulty-4" viewBox="0 0 658 44">
    <g>
        <path fill="#5EA9FF" d="M0,0 h64 v15 h-64 z"/>
        <path fill="#7CB3FF" d="M66 0 h64 v15 h-64 z"/>
        <path fill="#9ABEFF" d="M132 0 h64 v15 h-64 z"/>
        <path fill="#B7C9FF" d="M198 0 h64 v15 h-64 z"/>
        <path fill="#F7F7F7" d="M264 0 h64 v15 h-64 z"/>
        <path fill="#F7F7F7" d="M330 0 h64 v15 h-64 z"/>
        <path fill="#F7F7F7" d="M396 0 h64 v15 h-64 z"/>
        <path fill="#F7F7F7" d="M462 0 h64 v15 h-64 z"/>
        <path fill="#F7F7F7" d="M528 0 h64 v15 h-64 z"/>
        <path fill="#F7F7F7" d="M594 0 h64 v15 h-64 z"/>
    </g>
        <path fill="#E5E5E5" d="M230 25 l11 19 h-22 z"/>
</symbol><symbol id="difficulty-5" viewBox="0 0 658 44">
    <g>
        <path fill="#5EA9FF" d="M0,0 h64 v15 h-64 z"/>
        <path fill="#7CB3FF" d="M66 0 h64 v15 h-64 z"/>
        <path fill="#9ABEFF" d="M132 0 h64 v15 h-64 z"/>
        <path fill="#B7C9FF" d="M198 0 h64 v15 h-64 z"/>
        <path fill="#D5D3FF" d="M264 0 h64 v15 h-64 z"/>
        <path fill="#F7F7F7" d="M330 0 h64 v15 h-64 z"/>
        <path fill="#F7F7F7" d="M396 0 h64 v15 h-64 z"/>
        <path fill="#F7F7F7" d="M462 0 h64 v15 h-64 z"/>
        <path fill="#F7F7F7" d="M528 0 h64 v15 h-64 z"/>
        <path fill="#F7F7F7" d="M594 0 h64 v15 h-64 z"/>
    </g>
        <path fill="#E5E5E5" d="M296 25 l11 19 h-22 z"/>
</symbol><symbol id="difficulty-6" viewBox="0 0 658 44">
    <g>
        <path fill="#5EA9FF" d="M0,0 h64 v15 h-64 z"/>
        <path fill="#7CB3FF" d="M66 0 h64 v15 h-64 z"/>
        <path fill="#9ABEFF" d="M132 0 h64 v15 h-64 z"/>
        <path fill="#B7C9FF" d="M198 0 h64 v15 h-64 z"/>
        <path fill="#D5D3FF" d="M264 0 h64 v15 h-64 z"/>
        <path fill="#DDA9CC" d="M330 0 h64 v15 h-64 z"/>
        <path fill="#F7F7F7" d="M396 0 h64 v15 h-64 z"/>
        <path fill="#F7F7F7" d="M462 0 h64 v15 h-64 z"/>
        <path fill="#F7F7F7" d="M528 0 h64 v15 h-64 z"/>
        <path fill="#F7F7F7" d="M594 0 h64 v15 h-64 z"/>
    </g>
        <path fill="#E5E5E5" d="M362 25 l11 19 h-22 z"/>
</symbol><symbol id="difficulty-7" viewBox="0 0 658 44">
    <g>
        <path fill="#5EA9FF" d="M0,0 h64 v15 h-64 z"/>
        <path fill="#7CB3FF" d="M66 0 h64 v15 h-64 z"/>
        <path fill="#9ABEFF" d="M132 0 h64 v15 h-64 z"/>
        <path fill="#B7C9FF" d="M198 0 h64 v15 h-64 z"/>
        <path fill="#D5D3FF" d="M264 0 h64 v15 h-64 z"/>
        <path fill="#DDA9CC" d="M330 0 h64 v15 h-64 z"/>
        <path fill="#E67F99" d="M396 0 h64 v15 h-64 z"/>
        <path fill="#F7F7F7" d="M462 0 h64 v15 h-64 z"/>
        <path fill="#F7F7F7" d="M528 0 h64 v15 h-64 z"/>
        <path fill="#F7F7F7" d="M594 0 h64 v15 h-64 z"/>
    </g>
        <path fill="#E5E5E5" d="M428 25 l11 19 h-22 z"/>
</symbol><symbol id="difficulty-8" viewBox="0 0 658 44">
    <g>
        <path fill="#5EA9FF" d="M0,0 h64 v15 h-64 z"/>
        <path fill="#7CB3FF" d="M66 0 h64 v15 h-64 z"/>
        <path fill="#9ABEFF" d="M132 0 h64 v15 h-64 z"/>
        <path fill="#B7C9FF" d="M198 0 h64 v15 h-64 z"/>
        <path fill="#D5D3FF" d="M264 0 h64 v15 h-64 z"/>
        <path fill="#DDA9CC" d="M330 0 h64 v15 h-64 z"/>
        <path fill="#E67F99" d="M396 0 h64 v15 h-64 z"/>
        <path fill="#EE5466" d="M462 0 h64 v15 h-64 z"/>
        <path fill="#F7F7F7" d="M528 0 h64 v15 h-64 z"/>
        <path fill="#F7F7F7" d="M594 0 h64 v15 h-64 z"/>
    </g>
        <path fill="#E5E5E5" d="M494 25 l11 19 h-22 z"/>
</symbol><symbol id="difficulty-9" viewBox="0 0 658 44">
    <g>
        <path fill="#5EA9FF" d="M0,0 h64 v15 h-64 z"/>
        <path fill="#7CB3FF" d="M66 0 h64 v15 h-64 z"/>
        <path fill="#9ABEFF" d="M132 0 h64 v15 h-64 z"/>
        <path fill="#B7C9FF" d="M198 0 h64 v15 h-64 z"/>
        <path fill="#D5D3FF" d="M264 0 h64 v15 h-64 z"/>
        <path fill="#DDA9CC" d="M330 0 h64 v15 h-64 z"/>
        <path fill="#E67F99" d="M396 0 h64 v15 h-64 z"/>
        <path fill="#EE5466" d="M462 0 h64 v15 h-64 z"/>
        <path fill="#F72A33" d="M528 0 h64 v15 h-64 z"/>
        <path fill="#F7F7F7" d="M594 0 h64 v15 h-64 z"/>
    </g>
        <path fill="#E5E5E5" d="M560 25 l11 19 h-22 z"/>
</symbol><symbol id="logo-axioma" viewBox="0 0 160 42"><g transform="translate(-1502 -3558)"><rect class="a" width="160" height="42" transform="translate(1502 3558)"/><g transform="translate(1503.16 3565)"><path class="b" d="M216.7,769.831l1.991-6.541a5.348,5.348,0,0,0,.268-1.57,1.859,1.859,0,0,0-2.1-2.1,5.6,5.6,0,0,0-4.039,1.825l-4.828,4.46,1.083-3.379a3.919,3.919,0,0,0,.182-1.118q0-1.789-1.968-1.787a6.023,6.023,0,0,0-4.305,1.866l-5,4.419,1.885-6.285H181.9a9.042,9.042,0,0,0-5.872,1.786,7.084,7.084,0,0,0-2.5,4.656,6.9,6.9,0,0,0-.082,1.061,4.9,4.9,0,0,0,1.925,4.026,8.752,8.752,0,0,0,6.058,1.827,8.325,8.325,0,0,0,5.506-1.807,6.349,6.349,0,0,0,2.412-4.832,5.477,5.477,0,0,0-.282-1.993,3.149,3.149,0,0,0-.9-1.58h4.752l-3.05,10.213h3.4a2.894,2.894,0,0,0,2.12-.844l6.639-5.825-1.29,3.252a4.572,4.572,0,0,0-.249,1.414q0,2,2.269,2,1.518,0,3.653-2.081l5.6-5c-.489,1.848-.858,2.966-1.1,3.935a2.844,2.844,0,0,0-.065.609,2.6,2.6,0,0,0,.675,1.758,1.946,1.946,0,0,0,1.474.775h6.774a3.4,3.4,0,0,0,3.789-3.142Zm-34.371,0c-.157.014-.339.02-.55.02q-2.673,0-2.671-1.688a2.6,2.6,0,0,1,.117-.746l1.369-4.656h3.82Z" transform="translate(-87.327 -745.928)"/><path class="b" d="M180,769.728a3.957,3.957,0,0,1-1.8,2.553,4.078,4.078,0,0,1-2.136.589h-6.59a2.1,2.1,0,0,1-2.387-2.357,4.965,4.965,0,0,1,.233-1.433l3-9.353h6.056l-3.182,10Z" transform="translate(-93.41 -745.824)"/><path class="b" d="M185.577,759.619h-5.439l-2.9,2.531-1.435-2.531h-6.956l3.787,6.559-4.161,3.653h-4.885l3.137-10.212h-9.527a8.673,8.673,0,0,0-5.991,2.159,8.242,8.242,0,0,0-2.669,6.481,4.509,4.509,0,0,0,1.3,3.3,3.991,3.991,0,0,0,3.17,1.414,4.9,4.9,0,0,0,4.392-2.042q0,2.041,2.7,2.042h9.932l4.37-3.732,2.154,3.732h6.772l-4.337-7.679Zm-27.916,10.212c-.157.014-.341.02-.55.02q-2.673,0-2.671-1.688a2.6,2.6,0,0,1,.117-.746l1.369-4.656h3.82Z" transform="translate(-111.183 -745.928)"/><path class="b" d="M213.98,769.831l3.139-10.212h-9.527a8.673,8.673,0,0,0-5.991,2.159,8.235,8.235,0,0,0-2.669,6.481,4.476,4.476,0,0,0,1.245,3.3,3.986,3.986,0,0,0,3.17,1.414,4.989,4.989,0,0,0,4.444-2.042q0,2.041,2.7,2.042h6.324a3.818,3.818,0,0,0,4.088-3.142Zm-5.921,0c-.157.014-.341.02-.55.02-1.782,0-2.669-.562-2.669-1.688a2.6,2.6,0,0,1,.116-.746l1.369-4.656h3.82Z" transform="translate(-62.906 -745.928)"/><path class="c" d="M163.216,770.874l-10.733-17.627a1.312,1.312,0,0,0-1.12-.621h-9.87a1.316,1.316,0,0,0-1.124.621l-10.731,17.627a1.23,1.23,0,0,0,.012,1.3l4.374,6.9a1.321,1.321,0,0,0,2.232-.025l9.046-15.08a1.324,1.324,0,0,1,2.252,0l9.044,15.078a1.321,1.321,0,0,0,2.232.027l4.374-6.9a1.23,1.23,0,0,0,.014-1.3" transform="translate(-129.457 -752.626)"/><path class="d" d="M139.536,762.521a1.259,1.259,0,0,1,2.146,0l1.921,3.223,1.919,3.225a1.2,1.2,0,0,1-1.075,1.8h-7.675a1.2,1.2,0,0,1-1.073-1.8l1.919-3.225Z" transform="translate(-123.639 -743.723)"/><path class="b" d="M174.954,761.129l1.122-3.687h-4.047a2.72,2.72,0,0,0-2.6,1.921l-.542,1.766Z" transform="translate(-91.687 -748.013)"/></g></g></symbol><symbol id="logo-daichi" viewBox="0 0 160 42"><g transform="translate(-1502 -3501)"><rect class="a" width="160" height="42" transform="translate(1502 3501)"/><g transform="translate(1504 3508)"><path d="M157.13,720.436a14.725,14.725,0,0,1,5.559,1.046,14.523,14.523,0,0,1,4.51,2.956,13.846,13.846,0,0,1,3.029,4.4,13.924,13.924,0,0,1,0,10.8,13.9,13.9,0,0,1-3.029,4.391,13.652,13.652,0,0,1-4.51,2.917,13.991,13.991,0,0,1-5.559,1.09H146.564v-27.6Zm3.5,21.728a7.7,7.7,0,0,0,2.679-1.829,9.019,9.019,0,0,0,2.335-6.1,8.876,8.876,0,0,0-.623-3.383,8.519,8.519,0,0,0-1.711-2.718,8.251,8.251,0,0,0-2.679-1.865,9.208,9.208,0,0,0-3.5-.662H152.2v17.259h4.931a8.525,8.525,0,0,0,3.5-.7" transform="translate(-124.384 -719.97)"/><rect width="5.64" height="27.598" transform="translate(79.991 0.467)"/><path d="M195.8,737.485a7.3,7.3,0,0,1-7.6,5.85c-5.877,0-7.762-4.559-7.762-8.825s1.885-8.823,7.762-8.823a7.307,7.307,0,0,1,7.6,5.847h5.764c-1.125-6.779-6.126-11.289-13.157-11.289-8.009,0-13.82,5.865-13.82,14.265s5.811,14.265,13.82,14.265c7.031,0,12.033-4.513,13.157-11.289Z" transform="translate(-83.902 -720.245)"/><rect width="5.64" height="27.598" transform="translate(152.36 0.467)"/><path d="M205.6,720.436V731.65H193.2V720.436h-5.635v27.6H193.2V736.583h12.4v11.451h5.635v-27.6Z" transform="translate(-65.149 -719.969)"/><path d="M145.923,720.245a8.432,8.432,0,1,0,8.432,8.432,8.431,8.431,0,0,0-8.432-8.432m0,11.9a3.464,3.464,0,1,1,3.464-3.464,3.464,3.464,0,0,1-3.464,3.464" transform="translate(-137.491 -720.245)"/><rect width="13.45" height="4.86" transform="translate(55.293 17.55)"/><path d="M166.653,720.435l-9.5,27.6h5.982l9.128-27.6Z" transform="translate(-109.082 -719.971)"/><path d="M162.287,720.435l9.05,27.6h5.982l-9.419-27.6Z" transform="translate(-101.669 -719.971)"/></g></g></symbol><symbol id="logo-daikin" viewBox="0 0 160 42"><g transform="translate(-1502 -3437)"><rect class="a" width="160" height="42" transform="translate(1502 3437)"/><g transform="translate(1502 3441)"><path class="b" d="M39.685,717.941H75.834L39.685,751.466Z" transform="translate(-39.685 -717.941)"/><path class="c" d="M57.755,717.941H39.685V734.7Z" transform="translate(-39.685 -717.941)"/><path class="b" d="M106.622,721.639h8.506l-4.694,19.139h-8.508Z" transform="translate(19.163 -714.413)"/><path class="b" d="M88.824,740.777h7.727l1.4-5.786,4.272,5.786h9.449l-6.809-9.719,10.589-9.42H106.51L99.74,727.5l1.445-5.862H93.124Z" transform="translate(6.775 -714.413)"/><path class="b" d="M82.062,740.777l4.7-19.139h8.506l-4.7,19.139Z" transform="translate(0.381 -714.413)"/><path class="b" d="M108.381,740.777h5.889l2.735-10.919,3.445,10.919h9.519l4.764-19.139h-6.282l-2.677,10.549-3.689-10.549h-8.965Z" transform="translate(25.266 -714.413)"/><path class="b" d="M68.733,736.32a5.6,5.6,0,0,0,4.7-4.621s.547-3.31-.7-4.523a3.037,3.037,0,0,0-2.068-.739H67.4l-2.348,9.883Zm-12.916,4.457,4.763-19.139H73.361s8.8.705,7.881,9.654c-.025.26-.449,7.97-9.832,9.484Z" transform="translate(-24.433 -714.414)"/><path class="b" d="M82.3,732.751l-.872-4.9-2.677,4.9Zm-5.916,4.385-2.3,3.642H68.481L79.1,721.639h9.712l3.377,19.139H83.716l-.646-3.642Z" transform="translate(-12.459 -714.412)"/></g></g></symbol><symbol id="logo-kent" viewBox="0 0 160.16 42"><g transform="translate(-1502 -3501)"><rect class="a" width="160" height="42" transform="translate(1502 3501)"/><g transform="translate(1504.16 3510)"><path class="b" d="M235.768,722.241h4.548v6.969h.049l5.136-6.969h5.478l-6.311,7.947,6.8,9.121h-5.8l-5.306-7.752h-.049v7.752h-4.548Z" transform="translate(-203.518 -719.237)"/><path class="b" d="M245.571,722.241H257.6v3.226h-7.484v3.524h7.069v3.228h-7.069v3.863h7.752v3.228h-12.3Z" transform="translate(-195.544 -719.237)"/><path class="b" d="M254.054,722.241h5.8l5.772,11.592h.047l-.073-11.592h4.158v17.068h-5.649l-5.968-11.664h-.049l.147,11.664h-4.182Z" transform="translate(-188.644 -719.237)"/><path class="b" d="M268.145,725.616h-4.207v-3.375H276.9v3.375h-4.207V739.31h-4.548Z" transform="translate(-180.604 -719.237)"/><path class="b" d="M279.774,725.764h-.047l-2.2,6.675H281.8Zm-2.787-3.522h5.574l6.579,17.068h-4.987l-1.273-3.643h-6.409l-1.344,3.643h-4.621Z" transform="translate(-175.261 -719.237)"/><path class="b" d="M284.492,725.616h-4.207v-3.375h12.962v3.375H289.04V739.31h-4.548Z" transform="translate(-167.307 -719.237)"/><path class="b" d="M288.9,735.237a9.993,9.993,0,0,0,4.695,1.124c1.444,0,2.814-.294,2.814-1.663,0-3.179-8.072-1.175-8.072-7.384,0-4.109,4.011-5.235,7.435-5.235a14.472,14.472,0,0,1,4.4.636l-.294,3.522a9.169,9.169,0,0,0-3.79-.783c-1.151,0-3.056.1-3.056,1.59,0,2.764,8.07.9,8.07,7.067,0,4.427-3.718,5.625-7.509,5.625a17.949,17.949,0,0,1-5.087-.733Z" transform="translate(-160.758 -719.37)"/><path class="b" d="M311.825,732.83c0,4.671-3.032,6.775-7.482,6.775s-7.484-2.1-7.484-6.775V722.241h4.548v9.831c0,2.25.611,4.158,2.936,4.158s2.934-1.908,2.934-4.158v-9.831h4.548Z" transform="translate(-153.825 -719.238)"/><rect class="c" width="6.196" height="6.2" transform="translate(8.441)"/><rect class="c" width="6.196" height="6.202" transform="translate(8.441 16.847)"/><rect class="c" width="6.198" height="6.195" transform="matrix(0.864, -0.503, 0.503, 0.864, 0, 14.627)"/><rect class="c" width="6.199" height="6.198" transform="translate(0.013 8.376) rotate(-59.585)"/><rect class="c" width="6.196" height="6.199" transform="translate(14.625 16.864) rotate(-59.812)"/><rect class="c" width="6.199" height="6.199" transform="translate(14.601 6.168) rotate(-30.406)"/></g></g></symbol><symbol id="logo-midea" viewBox="0 0 160 42"><g transform="translate(-1502 -3373)"><rect class="a" width="160" height="42" transform="translate(1502 3373)"/><g transform="translate(1557 3373)"><path class="b" d="M117.941,776a4.933,4.933,0,0,1-1.319.758,5.33,5.33,0,0,1-2.006.353,3.712,3.712,0,0,1-2.9-1.206,5.307,5.307,0,0,1-1.051-3.568,5,5,0,0,1,.993-3.418,3.934,3.934,0,0,1,3.043-1.12,5.816,5.816,0,0,1,1.994.334,3.551,3.551,0,0,1,1.234.68.729.729,0,0,1,.208.511l0,6.163a.751.751,0,0,1-.2.513m3.512-16.665h-3.006c-.3,0-.307.349-.307.349v6.17l-.429-.227a5.153,5.153,0,0,0-1.452-.511,9.74,9.74,0,0,0-1.793-.147,7.97,7.97,0,0,0-5.7,2.048,7.605,7.605,0,0,0-2.12,5.7,8.127,8.127,0,0,0,1.781,5.33,6.4,6.4,0,0,0,5.173,2.1,5.38,5.38,0,0,0,4.538-1.961l.009,1.9h3.631v-3.56c0-3.968,0-16.834,0-16.834s.015-.361-.319-.361m-18.033,0h-2.934a.347.347,0,0,0-.358.424c0,.465,0,2.7,0,3.159h3.628v-3.207a.326.326,0,0,0-.337-.377M151.507,776.6a.5.5,0,0,1-.269.5,7.04,7.04,0,0,1-3.49.593,2.529,2.529,0,0,1-2.4-1.811,2.649,2.649,0,0,1,1.728-3.084,7.735,7.735,0,0,1,4.083.1c.274.075.344.233.344.559Zm-2.692-11.672c-4.262,0-5.763,2.585-6.237,3.824l-.165.448,1.418.484s.917-2.621,4.529-2.471c3.652.148,3.224,3.137,3.2,3.614a10.71,10.71,0,0,0-6.773.307,4.67,4.67,0,0,0-2.645,4.833c.109,2.35,2.184,4,4.884,4.153,2.423.136,3.514-.394,4.516-1.4l-.027,1.368h3.2V769.76c.068-1.781-1.191-4.833-5.892-4.833m-20.281,6.131c-.169-.005-.184-.17-.181-.252a3.921,3.921,0,0,1,1.075-2.161,3.963,3.963,0,0,1,2.846-1.113,3.713,3.713,0,0,1,2.52.888,4.022,4.022,0,0,1,1.227,2.21c.034.107.094.416-.158.416Zm9.028-3.834a6.6,6.6,0,0,0-5.247-2.251,7.705,7.705,0,0,0-5.529,2.121,7.34,7.34,0,0,0-2.185,5.529,7.171,7.171,0,0,0,2.14,5.437,8.506,8.506,0,0,0,6.036,2.028c4.981,0,6.063-3.432,6.472-4.568l-1.288-.416c-1.147,2.094-3.722,2.22-5.224,2.123a5.38,5.38,0,0,1-2.82-1,3.967,3.967,0,0,1-1.554-2.638l-.07-.462H139.5a8.953,8.953,0,0,0-1.937-5.909m-84.606.693c0-10.8,9.106-19.579,20.3-19.579a20.558,20.558,0,0,1,17.1,9.1,20.023,20.023,0,0,0-18.923-12.971c-11.033,0-20.008,8.607-20.008,19.185a18.508,18.508,0,0,0,2.023,8.326,18.892,18.892,0,0,1-.491-4.062m40.805-8.6H90.108a.32.32,0,0,0-.348.371,18.331,18.331,0,0,1,.169,2.861,20.646,20.646,0,0,1-4.355,13.593l-.278.344s-2.353-16.461-2.4-16.786c0,0-.014-.383-.331-.383H78.882c-.348,0-.325.368-.325.368-.085,1.9-1.147,17.752-12.712,20.312a13.178,13.178,0,0,0,8.048-2.108,13.031,13.031,0,0,0,6.073-8.293s1.413,8.837,1.6,10.868l.012.13-.114.06a22.571,22.571,0,0,1-31.347-11,21.317,21.317,0,0,0,20.833,16.759c11.792,0,18.8-9.869,20.012-16.88,0,0,1.588,10.222,1.629,10.556h4.824c-.072-.44-3.267-20.085-3.319-20.405,0,0-.017-.37-.332-.37m6.368,5.727v15.048l3.556-.005,0-15.043Z" transform="translate(-50.115 -744.469)"/></g></g></symbol></svg>