<svg xmlns="http://www.w3.org/2000/svg" viewBox="0 0 320 150"><defs><style>.cls-1{fill:#f7f7f7;}.cls-2,.cls-3,.cls-5{fill:none;stroke-width:2px;}.cls-2,.cls-3{stroke:#000;}.cls-2{stroke-miterlimit:10;}.cls-3,.cls-5{stroke-linejoin:round;}.cls-4{fill:#5ea9ff;}.cls-5{stroke:#5ea9ff;stroke-linecap:round;}</style></defs><g id="Layer_2" data-name="Layer 2"><rect class="cls-1" width="320" height="150"/></g><g id="Layer_1" data-name="Layer 1"><rect class="cls-2" x="110.57" y="40.88" width="6" height="81.16" transform="translate(32.1 195.03) rotate(-90)"/><path class="cls-3" d="M205.26,37.29H246a0,0,0,0,1,0,0v67.8a20.38,20.38,0,0,1-20.38,20.38h0a20.38,20.38,0,0,1-20.38-20.38V37.29a0,0,0,0,1,0,0Z" transform="translate(144.26 307.01) rotate(-90)"/><polyline class="cls-3" points="181.55 61 161 66.52 161 81.38 161 96.23 181.55 101.75"/><rect class="cls-2" x="137.2" y="77.95" width="40.75" height="6.85" rx="3.43" transform="translate(76.2 238.95) rotate(-90)"/><line class="cls-3" x1="181.55" y1="81.46" x2="269.73" y2="81.46"/><path class="cls-4" d="M30.84,47a16,16,0,0,0,16-15H14.89A16,16,0,0,0,30.84,47Z"/><path class="cls-4" d="M30.84,15A16,16,0,0,0,14.89,30h31.9A16,16,0,0,0,30.84,15Z"/><polygon class="cls-4" points="46.84 31 46.84 31 46.84 31 46.84 31"/><polygon class="cls-5" points="56.1 78.46 56.1 84.46 66.99 85.46 72.99 84.46 72.99 78.46 66.99 77.46 56.1 78.46"/></g></svg>